<svg width="72" height="72" viewBox="0 0 72 72" fill="none" xmlns="http://www.w3.org/2000/svg">
<rect width="72" height="72" fill="#1A1C21"/>
<path d="M18.177 53.8594C15.5068 53.8594 13.2116 53.3822 11.2914 52.4277C9.37118 51.4733 7.95657 50.1609 7.04759 48.4907C6.13861 46.8204 5.84887 44.9059 6.17838 42.7471H15.3818C15.2228 43.9401 15.5295 44.9002 16.3022 45.6274C17.0748 46.3432 18.0861 46.7011 19.3359 46.7011C20.3244 46.7011 21.222 46.4966 22.0288 46.0876C22.8355 45.6672 23.5115 45.082 24.0569 44.3321C24.6023 43.5708 24.9602 42.6789 25.1307 41.6563C25.3011 40.6337 25.2386 39.7474 24.9432 38.9975C24.6478 38.2362 24.1649 37.6511 23.4945 37.242C22.8241 36.8216 22.006 36.6114 21.0402 36.6114C20.029 36.6114 19.0632 36.8557 18.1429 37.3443C17.2225 37.8215 16.484 38.4862 15.9272 39.3384L7.88272 37.7022L12.4504 18.4772H35.9021L34.675 26.0445H18.995L17.018 33.7481H17.2225C17.9497 32.6914 19.0405 31.8165 20.4949 31.1234C21.9606 30.419 23.574 30.0667 25.3352 30.0667C27.4145 30.0667 29.187 30.5496 30.6527 31.5154C32.1185 32.4812 33.1808 33.8163 33.8399 35.5206C34.4989 37.225 34.6409 39.1793 34.2659 41.3836C33.891 43.8151 32.9706 45.9683 31.5049 47.843C30.0392 49.7178 28.1644 51.1892 25.8806 52.2573C23.5968 53.3253 21.0289 53.8594 18.177 53.8594Z" fill="#FE6100"/>
<path d="M56.6772 29.385C56.7795 28.2601 56.5068 27.3796 55.8591 26.7433C55.2115 26.0956 54.1207 25.7718 52.5868 25.7718C51.6096 25.7718 50.7915 25.8854 50.1325 26.1127C49.4849 26.3399 48.9793 26.6524 48.6157 27.0501C48.2634 27.4477 48.0419 27.9079 47.951 28.4306C47.8487 28.8396 47.8544 29.2146 47.968 29.5554C48.093 29.885 48.3259 30.1861 48.6668 30.4587C49.019 30.7314 49.4792 30.9757 50.0473 31.1916C50.6268 31.4075 51.3142 31.6007 52.1096 31.7711L54.8365 32.3847C56.6999 32.7937 58.2622 33.3334 59.5235 34.0038C60.796 34.6628 61.7959 35.4468 62.5231 36.3558C63.2503 37.2648 63.7275 38.2817 63.9548 39.4065C64.1934 40.5314 64.199 41.7585 63.9718 43.0879C63.5855 45.3831 62.6935 47.3261 61.296 48.9168C59.8984 50.5075 58.0748 51.7176 55.825 52.547C53.5753 53.3765 50.9733 53.7912 48.0191 53.7912C44.9968 53.7912 42.4289 53.3424 40.3155 52.4448C38.2135 51.5358 36.6909 50.1496 35.7479 48.2862C34.8162 46.4114 34.5889 44.0196 35.0661 41.1109H44.0651C43.9287 42.1789 44.0423 43.0766 44.4059 43.8038C44.7695 44.5309 45.3547 45.082 46.1614 45.457C46.9681 45.8319 47.9737 46.0194 49.1781 46.0194C50.2007 46.0194 51.0756 45.8944 51.8028 45.6444C52.53 45.3945 53.1038 45.0479 53.5242 44.6048C53.9446 44.1617 54.2002 43.656 54.2911 43.0879C54.382 42.5653 54.2911 42.0994 54.0184 41.6904C53.7457 41.2813 53.2515 40.912 52.5356 40.5825C51.8198 40.253 50.837 39.9519 49.5871 39.6792L46.2466 38.9293C43.2811 38.2476 41.0427 37.1227 39.5315 35.5547C38.0203 33.9867 37.4863 31.8393 37.9294 29.1123C38.293 26.8853 39.2077 24.9424 40.6734 23.2835C42.1505 21.6132 44.0253 20.3179 46.2978 19.3976C48.5816 18.4659 51.1097 18 53.8821 18C56.6999 18 59.0576 18.4715 60.9551 19.4146C62.864 20.3577 64.2331 21.6814 65.0626 23.3857C65.9034 25.0901 66.1306 27.0898 65.7443 29.385H56.6772Z" fill="#FE6100"/>
</svg>
